<mxfile host="app.diagrams.net" modified="2024-03-11T20:53:28.281Z" agent="Mozilla/5.0 (Macintosh; Intel Mac OS X 10_15_7) AppleWebKit/605.1.15 (KHTML, like Gecko) Version/17.3.1 Safari/605.1.15" etag="gL1ZUpUurwko_gtGnu6O" version="24.0.4" type="device">
  <diagram name="Page-1" id="rYCiV6eHUFpvPglYh0An">
    <mxGraphModel dx="3031" dy="2478" grid="1" gridSize="10" guides="1" tooltips="1" connect="1" arrows="1" fold="1" page="1" pageScale="1" pageWidth="827" pageHeight="1169" math="0" shadow="0">
      <root>
        <mxCell id="0" />
        <mxCell id="1" parent="0" />
        <mxCell id="wW_qUp8k6BbSZjRIO_K6-1" value="" style="rounded=0;whiteSpace=wrap;html=1;strokeWidth=2;" parent="1" vertex="1">
          <mxGeometry x="-170" y="145" width="760" height="185" as="geometry" />
        </mxCell>
        <mxCell id="wW_qUp8k6BbSZjRIO_K6-2" value="" style="rounded=0;whiteSpace=wrap;html=1;strokeWidth=2;fillColor=#FFFFFF;strokeColor=#6c8ebf;" parent="1" vertex="1">
          <mxGeometry x="710" y="170" width="130" height="80" as="geometry" />
        </mxCell>
        <mxCell id="wW_qUp8k6BbSZjRIO_K6-3" value="Local Encoder" style="rounded=1;whiteSpace=wrap;html=1;fillColor=#e1d5e7;strokeColor=#9673a6;strokeWidth=2;" parent="1" vertex="1">
          <mxGeometry x="-130" y="180" width="100" height="60" as="geometry" />
        </mxCell>
        <mxCell id="wW_qUp8k6BbSZjRIO_K6-4" value="Audio Encoder" style="text;html=1;align=center;verticalAlign=middle;resizable=0;points=[];autosize=1;strokeColor=none;fillColor=none;strokeWidth=2;" parent="1" vertex="1">
          <mxGeometry x="150" y="115" width="100" height="30" as="geometry" />
        </mxCell>
        <mxCell id="wW_qUp8k6BbSZjRIO_K6-5" value="Feature Projector" style="rounded=1;whiteSpace=wrap;html=1;fillColor=#f8cecc;strokeColor=#B85450;strokeWidth=2;" parent="1" vertex="1">
          <mxGeometry y="180" width="100" height="60" as="geometry" />
        </mxCell>
        <mxCell id="wW_qUp8k6BbSZjRIO_K6-9" value="Local Encoder Dim =&amp;gt; Model Dim" style="text;html=1;align=center;verticalAlign=middle;resizable=0;points=[];autosize=1;strokeColor=none;fillColor=none;strokeWidth=2;" parent="1" vertex="1">
          <mxGeometry x="-140" y="400" width="200" height="30" as="geometry" />
        </mxCell>
        <mxCell id="wW_qUp8k6BbSZjRIO_K6-10" value="Positional Encoder" style="rounded=1;whiteSpace=wrap;html=1;fillColor=#e1d5e7;strokeColor=#9673a6;strokeWidth=2;" parent="1" vertex="1">
          <mxGeometry x="150" y="180" width="100" height="60" as="geometry" />
        </mxCell>
        <mxCell id="wW_qUp8k6BbSZjRIO_K6-11" value="" style="endArrow=classic;html=1;rounded=0;strokeWidth=2;" parent="1" edge="1">
          <mxGeometry width="50" height="50" relative="1" as="geometry">
            <mxPoint x="-350" y="210" as="sourcePoint" />
            <mxPoint x="-170" y="210" as="targetPoint" />
          </mxGeometry>
        </mxCell>
        <mxCell id="wW_qUp8k6BbSZjRIO_K6-12" value="" style="endArrow=classic;html=1;rounded=0;entryX=0;entryY=0.5;entryDx=0;entryDy=0;strokeWidth=2;" parent="1" target="wW_qUp8k6BbSZjRIO_K6-3" edge="1">
          <mxGeometry width="50" height="50" relative="1" as="geometry">
            <mxPoint x="-170" y="210" as="sourcePoint" />
            <mxPoint x="-160" y="220" as="targetPoint" />
          </mxGeometry>
        </mxCell>
        <mxCell id="wW_qUp8k6BbSZjRIO_K6-13" value="" style="endArrow=classic;html=1;rounded=0;entryX=0;entryY=0.5;entryDx=0;entryDy=0;exitX=1;exitY=0.5;exitDx=0;exitDy=0;strokeWidth=2;" parent="1" source="wW_qUp8k6BbSZjRIO_K6-3" target="wW_qUp8k6BbSZjRIO_K6-5" edge="1">
          <mxGeometry width="50" height="50" relative="1" as="geometry">
            <mxPoint x="-160" y="220" as="sourcePoint" />
            <mxPoint x="-120" y="220" as="targetPoint" />
          </mxGeometry>
        </mxCell>
        <mxCell id="wW_qUp8k6BbSZjRIO_K6-14" value="" style="endArrow=classic;html=1;rounded=0;entryX=0;entryY=0.5;entryDx=0;entryDy=0;exitX=1;exitY=0.5;exitDx=0;exitDy=0;strokeWidth=2;" parent="1" source="wW_qUp8k6BbSZjRIO_K6-5" target="wW_qUp8k6BbSZjRIO_K6-10" edge="1">
          <mxGeometry width="50" height="50" relative="1" as="geometry">
            <mxPoint x="-20" y="220" as="sourcePoint" />
            <mxPoint x="10" y="220" as="targetPoint" />
          </mxGeometry>
        </mxCell>
        <mxCell id="wW_qUp8k6BbSZjRIO_K6-18" value="" style="rhombus;whiteSpace=wrap;html=1;fillColor=#f8cecc;strokeColor=#b85450;strokeWidth=2;" parent="1" vertex="1">
          <mxGeometry x="470" y="-10" width="30" height="30" as="geometry" />
        </mxCell>
        <mxCell id="wW_qUp8k6BbSZjRIO_K6-19" value="FFN" style="text;html=1;align=center;verticalAlign=middle;resizable=0;points=[];autosize=1;strokeColor=none;fillColor=none;strokeWidth=2;" parent="1" vertex="1">
          <mxGeometry x="540" y="-10" width="50" height="30" as="geometry" />
        </mxCell>
        <mxCell id="wW_qUp8k6BbSZjRIO_K6-21" value="Context Encoder" style="rounded=1;whiteSpace=wrap;html=1;fillColor=#dae8fc;strokeColor=#6C8EBF;strokeWidth=2;" parent="1" vertex="1">
          <mxGeometry x="410" y="180" width="100" height="60" as="geometry" />
        </mxCell>
        <mxCell id="wW_qUp8k6BbSZjRIO_K6-22" value="" style="rhombus;whiteSpace=wrap;html=1;fillColor=#dae8fc;strokeColor=#6c8ebf;strokeWidth=2;" parent="1" vertex="1">
          <mxGeometry x="470" y="-50" width="30" height="30" as="geometry" />
        </mxCell>
        <mxCell id="wW_qUp8k6BbSZjRIO_K6-23" value="Transformer" style="text;html=1;align=center;verticalAlign=middle;resizable=0;points=[];autosize=1;strokeColor=none;fillColor=none;strokeWidth=2;" parent="1" vertex="1">
          <mxGeometry x="520" y="-50" width="90" height="30" as="geometry" />
        </mxCell>
        <mxCell id="wW_qUp8k6BbSZjRIO_K6-25" value="" style="rhombus;whiteSpace=wrap;html=1;fillColor=#FFFFFF;strokeColor=#000000;strokeWidth=2;dashed=1;" parent="1" vertex="1">
          <mxGeometry x="840" y="-50" width="30" height="30" as="geometry" />
        </mxCell>
        <mxCell id="wW_qUp8k6BbSZjRIO_K6-26" value="Optional" style="text;html=1;align=center;verticalAlign=middle;resizable=0;points=[];autosize=1;strokeColor=none;fillColor=none;strokeWidth=2;" parent="1" vertex="1">
          <mxGeometry x="910" y="-50" width="70" height="30" as="geometry" />
        </mxCell>
        <mxCell id="wW_qUp8k6BbSZjRIO_K6-28" value="" style="endArrow=classic;html=1;rounded=0;exitX=1;exitY=0.5;exitDx=0;exitDy=0;strokeWidth=2;" parent="1" source="wW_qUp8k6BbSZjRIO_K6-21" edge="1">
          <mxGeometry width="50" height="50" relative="1" as="geometry">
            <mxPoint x="260" y="220" as="sourcePoint" />
            <mxPoint x="590" y="210" as="targetPoint" />
          </mxGeometry>
        </mxCell>
        <mxCell id="wW_qUp8k6BbSZjRIO_K6-29" value="" style="rhombus;whiteSpace=wrap;html=1;fillColor=#e1d5e7;strokeColor=#9673a6;strokeWidth=2;" parent="1" vertex="1">
          <mxGeometry x="470" y="-90" width="30" height="30" as="geometry" />
        </mxCell>
        <mxCell id="wW_qUp8k6BbSZjRIO_K6-30" value="CNN" style="text;html=1;align=center;verticalAlign=middle;resizable=0;points=[];autosize=1;strokeColor=none;fillColor=none;strokeWidth=2;" parent="1" vertex="1">
          <mxGeometry x="540" y="-90" width="50" height="30" as="geometry" />
        </mxCell>
        <mxCell id="wW_qUp8k6BbSZjRIO_K6-34" value="Masking" style="ellipse;shape=cloud;whiteSpace=wrap;html=1;" parent="1" vertex="1">
          <mxGeometry x="160" y="260" width="80" height="60" as="geometry" />
        </mxCell>
        <mxCell id="wW_qUp8k6BbSZjRIO_K6-35" value="" style="endArrow=classic;html=1;rounded=0;entryX=0.16;entryY=0.55;entryDx=0;entryDy=0;strokeWidth=2;entryPerimeter=0;" parent="1" target="wW_qUp8k6BbSZjRIO_K6-34" edge="1">
          <mxGeometry width="50" height="50" relative="1" as="geometry">
            <mxPoint x="120" y="210" as="sourcePoint" />
            <mxPoint x="160" y="220" as="targetPoint" />
            <Array as="points">
              <mxPoint x="120" y="293" />
            </Array>
          </mxGeometry>
        </mxCell>
        <mxCell id="wW_qUp8k6BbSZjRIO_K6-36" value="" style="endArrow=classic;html=1;rounded=0;exitX=0.875;exitY=0.5;exitDx=0;exitDy=0;strokeWidth=2;exitPerimeter=0;entryX=0.5;entryY=1;entryDx=0;entryDy=0;" parent="1" source="wW_qUp8k6BbSZjRIO_K6-34" target="wW_qUp8k6BbSZjRIO_K6-38" edge="1">
          <mxGeometry width="50" height="50" relative="1" as="geometry">
            <mxPoint x="250" y="330" as="sourcePoint" />
            <mxPoint x="340" y="430" as="targetPoint" />
            <Array as="points">
              <mxPoint x="325" y="290" />
            </Array>
          </mxGeometry>
        </mxCell>
        <mxCell id="wW_qUp8k6BbSZjRIO_K6-37" value="" style="endArrow=classic;html=1;rounded=0;exitX=1;exitY=0.5;exitDx=0;exitDy=0;strokeWidth=2;entryX=0;entryY=0.5;entryDx=0;entryDy=0;" parent="1" source="wW_qUp8k6BbSZjRIO_K6-10" target="wW_qUp8k6BbSZjRIO_K6-38" edge="1">
          <mxGeometry width="50" height="50" relative="1" as="geometry">
            <mxPoint x="110" y="220" as="sourcePoint" />
            <mxPoint x="166" y="294" as="targetPoint" />
          </mxGeometry>
        </mxCell>
        <mxCell id="wW_qUp8k6BbSZjRIO_K6-38" value="+" style="ellipse;whiteSpace=wrap;html=1;aspect=fixed;strokeWidth=2;" parent="1" vertex="1">
          <mxGeometry x="310" y="195" width="30" height="30" as="geometry" />
        </mxCell>
        <mxCell id="wW_qUp8k6BbSZjRIO_K6-39" value="" style="endArrow=classic;html=1;rounded=0;exitX=1;exitY=0.5;exitDx=0;exitDy=0;strokeWidth=2;entryX=0;entryY=0.5;entryDx=0;entryDy=0;" parent="1" source="wW_qUp8k6BbSZjRIO_K6-38" target="wW_qUp8k6BbSZjRIO_K6-21" edge="1">
          <mxGeometry width="50" height="50" relative="1" as="geometry">
            <mxPoint x="260" y="220" as="sourcePoint" />
            <mxPoint x="320" y="220" as="targetPoint" />
          </mxGeometry>
        </mxCell>
        <mxCell id="wW_qUp8k6BbSZjRIO_K6-40" value="" style="endArrow=classic;html=1;rounded=0;entryX=0.25;entryY=1;entryDx=0;entryDy=0;dashed=1;dashPattern=1 1;" parent="1" source="wW_qUp8k6BbSZjRIO_K6-9" target="wW_qUp8k6BbSZjRIO_K6-5" edge="1">
          <mxGeometry width="50" height="50" relative="1" as="geometry">
            <mxPoint x="240" y="250" as="sourcePoint" />
            <mxPoint x="290" y="200" as="targetPoint" />
          </mxGeometry>
        </mxCell>
        <mxCell id="wW_qUp8k6BbSZjRIO_K6-42" value="Only unmasked" style="text;html=1;align=center;verticalAlign=middle;resizable=0;points=[];autosize=1;strokeColor=none;fillColor=none;" parent="1" vertex="1">
          <mxGeometry x="890" y="-100" width="110" height="30" as="geometry" />
        </mxCell>
        <mxCell id="wW_qUp8k6BbSZjRIO_K6-43" value="+" style="ellipse;whiteSpace=wrap;html=1;aspect=fixed;strokeWidth=2;" parent="1" vertex="1">
          <mxGeometry x="840" y="-100" width="30" height="30" as="geometry" />
        </mxCell>
        <mxCell id="wW_qUp8k6BbSZjRIO_K6-44" value="Encoder" style="text;html=1;align=center;verticalAlign=middle;resizable=0;points=[];autosize=1;strokeColor=none;fillColor=none;strokeWidth=2;" parent="1" vertex="1">
          <mxGeometry x="740" y="130" width="70" height="30" as="geometry" />
        </mxCell>
        <mxCell id="wW_qUp8k6BbSZjRIO_K6-45" value="" style="endArrow=classic;html=1;rounded=0;strokeWidth=2;entryX=0;entryY=0.5;entryDx=0;entryDy=0;" parent="1" target="wW_qUp8k6BbSZjRIO_K6-2" edge="1">
          <mxGeometry width="50" height="50" relative="1" as="geometry">
            <mxPoint x="590" y="209" as="sourcePoint" />
            <mxPoint x="670" y="209.29" as="targetPoint" />
          </mxGeometry>
        </mxCell>
        <mxCell id="wW_qUp8k6BbSZjRIO_K6-49" value="Decoder1D" style="text;html=1;align=center;verticalAlign=middle;resizable=0;points=[];autosize=1;strokeColor=none;fillColor=none;strokeWidth=2;" parent="1" vertex="1">
          <mxGeometry x="1125" y="120" width="80" height="30" as="geometry" />
        </mxCell>
        <mxCell id="wW_qUp8k6BbSZjRIO_K6-51" value="" style="rounded=0;whiteSpace=wrap;html=1;strokeWidth=2;fillColor=#FFFFFF;strokeColor=#000000;" parent="1" vertex="1">
          <mxGeometry x="980" y="150" width="370" height="180" as="geometry" />
        </mxCell>
        <mxCell id="wW_qUp8k6BbSZjRIO_K6-52" value="" style="endArrow=classic;html=1;rounded=0;strokeWidth=2;exitX=1;exitY=0.5;exitDx=0;exitDy=0;" parent="1" source="wW_qUp8k6BbSZjRIO_K6-2" edge="1">
          <mxGeometry width="50" height="50" relative="1" as="geometry">
            <mxPoint x="600" y="219" as="sourcePoint" />
            <mxPoint x="920" y="210" as="targetPoint" />
          </mxGeometry>
        </mxCell>
        <mxCell id="wW_qUp8k6BbSZjRIO_K6-54" value="" style="endArrow=classic;html=1;rounded=0;exitX=0.55;exitY=0.95;exitDx=0;exitDy=0;strokeWidth=2;exitPerimeter=0;entryX=0.5;entryY=1;entryDx=0;entryDy=0;" parent="1" source="wW_qUp8k6BbSZjRIO_K6-34" target="wW_qUp8k6BbSZjRIO_K6-55" edge="1">
          <mxGeometry width="50" height="50" relative="1" as="geometry">
            <mxPoint x="240" y="300" as="sourcePoint" />
            <mxPoint x="950" y="400" as="targetPoint" />
            <Array as="points">
              <mxPoint x="204" y="410" />
              <mxPoint x="935" y="410" />
            </Array>
          </mxGeometry>
        </mxCell>
        <mxCell id="wW_qUp8k6BbSZjRIO_K6-55" value="&amp;amp;" style="ellipse;whiteSpace=wrap;html=1;aspect=fixed;strokeWidth=2;" parent="1" vertex="1">
          <mxGeometry x="920" y="195" width="30" height="30" as="geometry" />
        </mxCell>
        <mxCell id="wW_qUp8k6BbSZjRIO_K6-56" value="&amp;amp;" style="ellipse;whiteSpace=wrap;html=1;aspect=fixed;strokeWidth=2;" parent="1" vertex="1">
          <mxGeometry x="840" y="-140" width="30" height="30" as="geometry" />
        </mxCell>
        <mxCell id="wW_qUp8k6BbSZjRIO_K6-57" value="Combine Masked and (encoded) unmasked" style="text;html=1;align=center;verticalAlign=middle;resizable=0;points=[];autosize=1;strokeColor=none;fillColor=none;" parent="1" vertex="1">
          <mxGeometry x="870" y="-140" width="260" height="30" as="geometry" />
        </mxCell>
        <mxCell id="wW_qUp8k6BbSZjRIO_K6-58" value="" style="endArrow=classic;html=1;rounded=0;strokeWidth=2;exitX=1;exitY=0.5;exitDx=0;exitDy=0;" parent="1" source="wW_qUp8k6BbSZjRIO_K6-55" edge="1">
          <mxGeometry width="50" height="50" relative="1" as="geometry">
            <mxPoint x="850" y="220" as="sourcePoint" />
            <mxPoint x="980" y="210" as="targetPoint" />
          </mxGeometry>
        </mxCell>
        <mxCell id="wW_qUp8k6BbSZjRIO_K6-60" value="Conv1D Residual Blocks" style="rounded=1;whiteSpace=wrap;html=1;fillColor=#e1d5e7;strokeColor=#9673a6;strokeWidth=2;" parent="1" vertex="1">
          <mxGeometry x="1020" y="180" width="100" height="60" as="geometry" />
        </mxCell>
        <mxCell id="wW_qUp8k6BbSZjRIO_K6-61" value="Blocks" style="rounded=1;whiteSpace=wrap;html=1;fillColor=#dae8fc;strokeColor=#6c8ebf;strokeWidth=2;" parent="1" vertex="1">
          <mxGeometry x="725" y="180" width="100" height="60" as="geometry" />
        </mxCell>
        <mxCell id="wW_qUp8k6BbSZjRIO_K6-62" value="" style="endArrow=classic;html=1;rounded=0;strokeWidth=2;entryX=0;entryY=0.5;entryDx=0;entryDy=0;" parent="1" target="wW_qUp8k6BbSZjRIO_K6-60" edge="1">
          <mxGeometry width="50" height="50" relative="1" as="geometry">
            <mxPoint x="980" y="210" as="sourcePoint" />
            <mxPoint x="991" y="221" as="targetPoint" />
          </mxGeometry>
        </mxCell>
        <mxCell id="wW_qUp8k6BbSZjRIO_K6-63" value="Projection" style="rounded=1;whiteSpace=wrap;html=1;fillColor=#f8cecc;strokeColor=#b85450;strokeWidth=2;" parent="1" vertex="1">
          <mxGeometry x="1160" y="180" width="100" height="60" as="geometry" />
        </mxCell>
        <mxCell id="wW_qUp8k6BbSZjRIO_K6-64" value="" style="endArrow=classic;html=1;rounded=0;strokeWidth=2;exitX=1;exitY=0.5;exitDx=0;exitDy=0;" parent="1" source="wW_qUp8k6BbSZjRIO_K6-60" target="wW_qUp8k6BbSZjRIO_K6-63" edge="1">
          <mxGeometry width="50" height="50" relative="1" as="geometry">
            <mxPoint x="987" y="217" as="sourcePoint" />
            <mxPoint x="1030" y="220" as="targetPoint" />
          </mxGeometry>
        </mxCell>
        <mxCell id="wW_qUp8k6BbSZjRIO_K6-65" value="" style="endArrow=classic;html=1;rounded=0;strokeWidth=2;exitX=1;exitY=0.5;exitDx=0;exitDy=0;" parent="1" source="wW_qUp8k6BbSZjRIO_K6-63" edge="1">
          <mxGeometry width="50" height="50" relative="1" as="geometry">
            <mxPoint x="1130" y="220" as="sourcePoint" />
            <mxPoint x="1350" y="210" as="targetPoint" />
          </mxGeometry>
        </mxCell>
        <mxCell id="wW_qUp8k6BbSZjRIO_K6-66" value="" style="endArrow=classic;html=1;rounded=0;strokeWidth=2;entryX=1.004;entryY=0.337;entryDx=0;entryDy=0;entryPerimeter=0;" parent="1" edge="1">
          <mxGeometry width="50" height="50" relative="1" as="geometry">
            <mxPoint x="1350" y="210" as="sourcePoint" />
            <mxPoint x="1461" y="210.5" as="targetPoint" />
          </mxGeometry>
        </mxCell>
        <mxCell id="wW_qUp8k6BbSZjRIO_K6-67" value="" style="rounded=0;whiteSpace=wrap;html=1;strokeWidth=2;" parent="1" vertex="1">
          <mxGeometry x="-160.5" y="520" width="760" height="185" as="geometry" />
        </mxCell>
        <mxCell id="wW_qUp8k6BbSZjRIO_K6-68" value="" style="rounded=0;whiteSpace=wrap;html=1;strokeWidth=2;fillColor=#FFFFFF;strokeColor=#6c8ebf;" parent="1" vertex="1">
          <mxGeometry x="719.5" y="545" width="130" height="80" as="geometry" />
        </mxCell>
        <mxCell id="wW_qUp8k6BbSZjRIO_K6-69" value="Local Encoder" style="rounded=1;whiteSpace=wrap;html=1;fillColor=#f5f5f5;strokeColor=#666666;fontColor=#333333;strokeWidth=2;" parent="1" vertex="1">
          <mxGeometry x="-120.5" y="555" width="100" height="60" as="geometry" />
        </mxCell>
        <mxCell id="wW_qUp8k6BbSZjRIO_K6-70" value="Text Encoder" style="text;html=1;align=center;verticalAlign=middle;resizable=0;points=[];autosize=1;strokeColor=none;fillColor=none;strokeWidth=2;" parent="1" vertex="1">
          <mxGeometry x="164.5" y="490" width="90" height="30" as="geometry" />
        </mxCell>
        <mxCell id="wW_qUp8k6BbSZjRIO_K6-74" value="" style="endArrow=classic;html=1;rounded=0;strokeWidth=2;" parent="1" edge="1">
          <mxGeometry width="50" height="50" relative="1" as="geometry">
            <mxPoint x="-340.5" y="585" as="sourcePoint" />
            <mxPoint x="-160.5" y="585" as="targetPoint" />
          </mxGeometry>
        </mxCell>
        <mxCell id="wW_qUp8k6BbSZjRIO_K6-75" value="" style="endArrow=classic;html=1;rounded=0;entryX=0;entryY=0.5;entryDx=0;entryDy=0;strokeWidth=2;" parent="1" target="wW_qUp8k6BbSZjRIO_K6-69" edge="1">
          <mxGeometry width="50" height="50" relative="1" as="geometry">
            <mxPoint x="-160.5" y="585" as="sourcePoint" />
            <mxPoint x="-150.5" y="595" as="targetPoint" />
          </mxGeometry>
        </mxCell>
        <mxCell id="wW_qUp8k6BbSZjRIO_K6-76" value="" style="endArrow=classic;html=1;rounded=0;exitX=1;exitY=0.5;exitDx=0;exitDy=0;strokeWidth=2;" parent="1" source="wW_qUp8k6BbSZjRIO_K6-69" edge="1">
          <mxGeometry width="50" height="50" relative="1" as="geometry">
            <mxPoint x="-150.5" y="595" as="sourcePoint" />
            <mxPoint x="180" y="585" as="targetPoint" />
          </mxGeometry>
        </mxCell>
        <mxCell id="wW_qUp8k6BbSZjRIO_K6-78" value="Context Encoder" style="rounded=1;whiteSpace=wrap;html=1;fillColor=#dae8fc;strokeColor=#000000;strokeWidth=2;dashed=1;" parent="1" vertex="1">
          <mxGeometry x="419.5" y="555" width="100" height="60" as="geometry" />
        </mxCell>
        <mxCell id="wW_qUp8k6BbSZjRIO_K6-79" value="" style="endArrow=classic;html=1;rounded=0;exitX=1;exitY=0.5;exitDx=0;exitDy=0;strokeWidth=2;" parent="1" source="wW_qUp8k6BbSZjRIO_K6-78" edge="1">
          <mxGeometry width="50" height="50" relative="1" as="geometry">
            <mxPoint x="269.5" y="595" as="sourcePoint" />
            <mxPoint x="599.5" y="585" as="targetPoint" />
          </mxGeometry>
        </mxCell>
        <mxCell id="wW_qUp8k6BbSZjRIO_K6-80" value="Masking" style="ellipse;shape=cloud;whiteSpace=wrap;html=1;" parent="1" vertex="1">
          <mxGeometry x="169.5" y="555" width="80" height="60" as="geometry" />
        </mxCell>
        <mxCell id="wW_qUp8k6BbSZjRIO_K6-85" value="" style="endArrow=classic;html=1;rounded=0;exitX=0.875;exitY=0.5;exitDx=0;exitDy=0;strokeWidth=2;entryX=0;entryY=0.5;entryDx=0;entryDy=0;exitPerimeter=0;" parent="1" target="wW_qUp8k6BbSZjRIO_K6-78" edge="1" source="wW_qUp8k6BbSZjRIO_K6-80">
          <mxGeometry width="50" height="50" relative="1" as="geometry">
            <mxPoint x="349.5" y="585" as="sourcePoint" />
            <mxPoint x="329.5" y="595" as="targetPoint" />
          </mxGeometry>
        </mxCell>
        <mxCell id="wW_qUp8k6BbSZjRIO_K6-87" value="Encoder" style="text;html=1;align=center;verticalAlign=middle;resizable=0;points=[];autosize=1;strokeColor=none;fillColor=none;strokeWidth=2;" parent="1" vertex="1">
          <mxGeometry x="749.5" y="505" width="70" height="30" as="geometry" />
        </mxCell>
        <mxCell id="wW_qUp8k6BbSZjRIO_K6-88" value="" style="endArrow=classic;html=1;rounded=0;strokeWidth=2;entryX=0;entryY=0.5;entryDx=0;entryDy=0;" parent="1" target="wW_qUp8k6BbSZjRIO_K6-68" edge="1">
          <mxGeometry width="50" height="50" relative="1" as="geometry">
            <mxPoint x="599.5" y="584" as="sourcePoint" />
            <mxPoint x="679.5" y="584.29" as="targetPoint" />
          </mxGeometry>
        </mxCell>
        <mxCell id="wW_qUp8k6BbSZjRIO_K6-89" value="Decoder1D" style="text;html=1;align=center;verticalAlign=middle;resizable=0;points=[];autosize=1;strokeColor=none;fillColor=none;strokeWidth=2;" parent="1" vertex="1">
          <mxGeometry x="1134.5" y="495" width="80" height="30" as="geometry" />
        </mxCell>
        <mxCell id="wW_qUp8k6BbSZjRIO_K6-90" value="" style="rounded=0;whiteSpace=wrap;html=1;strokeWidth=2;fillColor=#FFFFFF;strokeColor=#000000;" parent="1" vertex="1">
          <mxGeometry x="989.5" y="525" width="370" height="180" as="geometry" />
        </mxCell>
        <mxCell id="wW_qUp8k6BbSZjRIO_K6-91" value="" style="endArrow=classic;html=1;rounded=0;strokeWidth=2;exitX=1;exitY=0.5;exitDx=0;exitDy=0;" parent="1" source="wW_qUp8k6BbSZjRIO_K6-68" edge="1">
          <mxGeometry width="50" height="50" relative="1" as="geometry">
            <mxPoint x="609.5" y="594" as="sourcePoint" />
            <mxPoint x="929.5" y="585" as="targetPoint" />
          </mxGeometry>
        </mxCell>
        <mxCell id="wW_qUp8k6BbSZjRIO_K6-92" value="" style="endArrow=classic;html=1;rounded=0;exitX=0.55;exitY=0.95;exitDx=0;exitDy=0;strokeWidth=2;exitPerimeter=0;entryX=0.5;entryY=1;entryDx=0;entryDy=0;" parent="1" source="wW_qUp8k6BbSZjRIO_K6-80" target="wW_qUp8k6BbSZjRIO_K6-93" edge="1">
          <mxGeometry width="50" height="50" relative="1" as="geometry">
            <mxPoint x="249.5" y="675" as="sourcePoint" />
            <mxPoint x="959.5" y="775" as="targetPoint" />
            <Array as="points">
              <mxPoint x="213.5" y="785" />
              <mxPoint x="944.5" y="785" />
            </Array>
          </mxGeometry>
        </mxCell>
        <mxCell id="wW_qUp8k6BbSZjRIO_K6-93" value="&amp;amp;" style="ellipse;whiteSpace=wrap;html=1;aspect=fixed;strokeWidth=2;" parent="1" vertex="1">
          <mxGeometry x="929.5" y="570" width="30" height="30" as="geometry" />
        </mxCell>
        <mxCell id="wW_qUp8k6BbSZjRIO_K6-94" value="" style="endArrow=classic;html=1;rounded=0;strokeWidth=2;exitX=1;exitY=0.5;exitDx=0;exitDy=0;" parent="1" source="wW_qUp8k6BbSZjRIO_K6-93" edge="1">
          <mxGeometry width="50" height="50" relative="1" as="geometry">
            <mxPoint x="859.5" y="595" as="sourcePoint" />
            <mxPoint x="989.5" y="585" as="targetPoint" />
          </mxGeometry>
        </mxCell>
        <mxCell id="wW_qUp8k6BbSZjRIO_K6-95" value="Conv1D Residual Blocks" style="rounded=1;whiteSpace=wrap;html=1;fillColor=#e1d5e7;strokeColor=#9673a6;strokeWidth=2;" parent="1" vertex="1">
          <mxGeometry x="1029.5" y="555" width="100" height="60" as="geometry" />
        </mxCell>
        <mxCell id="wW_qUp8k6BbSZjRIO_K6-96" value="Blocks" style="rounded=1;whiteSpace=wrap;html=1;fillColor=#dae8fc;strokeColor=#6c8ebf;strokeWidth=2;" parent="1" vertex="1">
          <mxGeometry x="734.5" y="555" width="100" height="60" as="geometry" />
        </mxCell>
        <mxCell id="wW_qUp8k6BbSZjRIO_K6-97" value="" style="endArrow=classic;html=1;rounded=0;strokeWidth=2;entryX=0;entryY=0.5;entryDx=0;entryDy=0;" parent="1" target="wW_qUp8k6BbSZjRIO_K6-95" edge="1">
          <mxGeometry width="50" height="50" relative="1" as="geometry">
            <mxPoint x="989.5" y="585" as="sourcePoint" />
            <mxPoint x="1000.5" y="596" as="targetPoint" />
          </mxGeometry>
        </mxCell>
        <mxCell id="wW_qUp8k6BbSZjRIO_K6-98" value="Projection" style="rounded=1;whiteSpace=wrap;html=1;fillColor=#f8cecc;strokeColor=#b85450;strokeWidth=2;" parent="1" vertex="1">
          <mxGeometry x="1169.5" y="555" width="100" height="60" as="geometry" />
        </mxCell>
        <mxCell id="wW_qUp8k6BbSZjRIO_K6-99" value="" style="endArrow=classic;html=1;rounded=0;strokeWidth=2;exitX=1;exitY=0.5;exitDx=0;exitDy=0;" parent="1" source="wW_qUp8k6BbSZjRIO_K6-95" target="wW_qUp8k6BbSZjRIO_K6-98" edge="1">
          <mxGeometry width="50" height="50" relative="1" as="geometry">
            <mxPoint x="996.5" y="592" as="sourcePoint" />
            <mxPoint x="1039.5" y="595" as="targetPoint" />
          </mxGeometry>
        </mxCell>
        <mxCell id="wW_qUp8k6BbSZjRIO_K6-100" value="" style="endArrow=classic;html=1;rounded=0;strokeWidth=2;exitX=1;exitY=0.5;exitDx=0;exitDy=0;" parent="1" source="wW_qUp8k6BbSZjRIO_K6-98" edge="1">
          <mxGeometry width="50" height="50" relative="1" as="geometry">
            <mxPoint x="1139.5" y="595" as="sourcePoint" />
            <mxPoint x="1359.5" y="585" as="targetPoint" />
          </mxGeometry>
        </mxCell>
        <mxCell id="wW_qUp8k6BbSZjRIO_K6-101" value="" style="endArrow=classic;html=1;rounded=0;strokeWidth=2;entryX=1.004;entryY=0.337;entryDx=0;entryDy=0;entryPerimeter=0;" parent="1" edge="1">
          <mxGeometry width="50" height="50" relative="1" as="geometry">
            <mxPoint x="1359.5" y="585" as="sourcePoint" />
            <mxPoint x="1470.5" y="585.5" as="targetPoint" />
          </mxGeometry>
        </mxCell>
        <mxCell id="wW_qUp8k6BbSZjRIO_K6-102" value="" style="rhombus;whiteSpace=wrap;html=1;fillColor=#f5f5f5;strokeColor=#666666;strokeWidth=2;fontColor=#333333;" parent="1" vertex="1">
          <mxGeometry x="470" y="-130" width="30" height="30" as="geometry" />
        </mxCell>
        <mxCell id="wW_qUp8k6BbSZjRIO_K6-103" value="Embedding" style="text;html=1;align=center;verticalAlign=middle;resizable=0;points=[];autosize=1;strokeColor=none;fillColor=none;strokeWidth=2;" parent="1" vertex="1">
          <mxGeometry x="525" y="-130" width="80" height="30" as="geometry" />
        </mxCell>
        <mxCell id="wW_qUp8k6BbSZjRIO_K6-104" value="" style="rounded=0;whiteSpace=wrap;html=1;strokeWidth=2;" parent="1" vertex="1">
          <mxGeometry x="-150.5" y="880" width="760" height="185" as="geometry" />
        </mxCell>
        <mxCell id="wW_qUp8k6BbSZjRIO_K6-105" value="" style="rounded=0;whiteSpace=wrap;html=1;strokeWidth=2;fillColor=#FFFFFF;strokeColor=#6c8ebf;" parent="1" vertex="1">
          <mxGeometry x="729.5" y="905" width="130" height="80" as="geometry" />
        </mxCell>
        <mxCell id="wW_qUp8k6BbSZjRIO_K6-106" value="Local Encoder" style="rounded=1;whiteSpace=wrap;html=1;fillColor=#f5f5f5;strokeColor=#666666;fontColor=#333333;strokeWidth=2;" parent="1" vertex="1">
          <mxGeometry x="-110.5" y="915" width="100" height="60" as="geometry" />
        </mxCell>
        <mxCell id="wW_qUp8k6BbSZjRIO_K6-107" value="Image Encoder" style="text;html=1;align=center;verticalAlign=middle;resizable=0;points=[];autosize=1;strokeColor=none;fillColor=none;strokeWidth=2;" parent="1" vertex="1">
          <mxGeometry x="169.5" y="850" width="100" height="30" as="geometry" />
        </mxCell>
        <mxCell id="wW_qUp8k6BbSZjRIO_K6-108" value="" style="endArrow=classic;html=1;rounded=0;strokeWidth=2;" parent="1" edge="1">
          <mxGeometry width="50" height="50" relative="1" as="geometry">
            <mxPoint x="-330.5" y="945" as="sourcePoint" />
            <mxPoint x="-150.5" y="945" as="targetPoint" />
          </mxGeometry>
        </mxCell>
        <mxCell id="wW_qUp8k6BbSZjRIO_K6-109" value="" style="endArrow=classic;html=1;rounded=0;entryX=0;entryY=0.5;entryDx=0;entryDy=0;strokeWidth=2;" parent="1" target="wW_qUp8k6BbSZjRIO_K6-106" edge="1">
          <mxGeometry width="50" height="50" relative="1" as="geometry">
            <mxPoint x="-150.5" y="945" as="sourcePoint" />
            <mxPoint x="-140.5" y="955" as="targetPoint" />
          </mxGeometry>
        </mxCell>
        <mxCell id="wW_qUp8k6BbSZjRIO_K6-111" value="Context Encoder" style="rounded=1;whiteSpace=wrap;html=1;fillColor=#dae8fc;strokeColor=#6C8EBF;strokeWidth=2;" parent="1" vertex="1">
          <mxGeometry x="429.5" y="915" width="100" height="60" as="geometry" />
        </mxCell>
        <mxCell id="wW_qUp8k6BbSZjRIO_K6-112" value="" style="endArrow=classic;html=1;rounded=0;exitX=1;exitY=0.5;exitDx=0;exitDy=0;strokeWidth=2;" parent="1" source="wW_qUp8k6BbSZjRIO_K6-111" edge="1">
          <mxGeometry width="50" height="50" relative="1" as="geometry">
            <mxPoint x="279.5" y="955" as="sourcePoint" />
            <mxPoint x="609.5" y="945" as="targetPoint" />
          </mxGeometry>
        </mxCell>
        <mxCell id="wW_qUp8k6BbSZjRIO_K6-113" value="Masking" style="ellipse;shape=cloud;whiteSpace=wrap;html=1;" parent="1" vertex="1">
          <mxGeometry x="179.5" y="995" width="80" height="60" as="geometry" />
        </mxCell>
        <mxCell id="wW_qUp8k6BbSZjRIO_K6-114" value="" style="endArrow=classic;html=1;rounded=0;entryX=0.16;entryY=0.55;entryDx=0;entryDy=0;strokeWidth=2;entryPerimeter=0;" parent="1" target="wW_qUp8k6BbSZjRIO_K6-113" edge="1">
          <mxGeometry width="50" height="50" relative="1" as="geometry">
            <mxPoint x="139.5" y="945" as="sourcePoint" />
            <mxPoint x="179.5" y="955" as="targetPoint" />
            <Array as="points">
              <mxPoint x="139.5" y="1028" />
            </Array>
          </mxGeometry>
        </mxCell>
        <mxCell id="wW_qUp8k6BbSZjRIO_K6-115" value="" style="endArrow=classic;html=1;rounded=0;exitX=0.875;exitY=0.5;exitDx=0;exitDy=0;strokeWidth=2;exitPerimeter=0;entryX=0.5;entryY=1;entryDx=0;entryDy=0;" parent="1" source="wW_qUp8k6BbSZjRIO_K6-113" edge="1">
          <mxGeometry width="50" height="50" relative="1" as="geometry">
            <mxPoint x="269.5" y="1065" as="sourcePoint" />
            <mxPoint x="344.5" y="960" as="targetPoint" />
            <Array as="points">
              <mxPoint x="344.5" y="1025" />
            </Array>
          </mxGeometry>
        </mxCell>
        <mxCell id="wW_qUp8k6BbSZjRIO_K6-116" value="" style="endArrow=classic;html=1;rounded=0;exitX=1;exitY=0.5;exitDx=0;exitDy=0;strokeWidth=2;entryX=0;entryY=0.5;entryDx=0;entryDy=0;" parent="1" source="wW_qUp8k6BbSZjRIO_K6-132" target="wW_qUp8k6BbSZjRIO_K6-133" edge="1">
          <mxGeometry width="50" height="50" relative="1" as="geometry">
            <mxPoint x="359.5" y="945" as="sourcePoint" />
            <mxPoint x="310" y="950" as="targetPoint" />
          </mxGeometry>
        </mxCell>
        <mxCell id="wW_qUp8k6BbSZjRIO_K6-117" value="Encoder" style="text;html=1;align=center;verticalAlign=middle;resizable=0;points=[];autosize=1;strokeColor=none;fillColor=none;strokeWidth=2;" parent="1" vertex="1">
          <mxGeometry x="759.5" y="865" width="70" height="30" as="geometry" />
        </mxCell>
        <mxCell id="wW_qUp8k6BbSZjRIO_K6-118" value="" style="endArrow=classic;html=1;rounded=0;strokeWidth=2;entryX=0;entryY=0.5;entryDx=0;entryDy=0;" parent="1" target="wW_qUp8k6BbSZjRIO_K6-105" edge="1">
          <mxGeometry width="50" height="50" relative="1" as="geometry">
            <mxPoint x="609.5" y="944" as="sourcePoint" />
            <mxPoint x="689.5" y="944.29" as="targetPoint" />
          </mxGeometry>
        </mxCell>
        <mxCell id="wW_qUp8k6BbSZjRIO_K6-119" value="Decoder2D" style="text;html=1;align=center;verticalAlign=middle;resizable=0;points=[];autosize=1;strokeColor=none;fillColor=none;strokeWidth=2;" parent="1" vertex="1">
          <mxGeometry x="1144.5" y="855" width="80" height="30" as="geometry" />
        </mxCell>
        <mxCell id="wW_qUp8k6BbSZjRIO_K6-120" value="" style="rounded=0;whiteSpace=wrap;html=1;strokeWidth=2;fillColor=#FFFFFF;strokeColor=#000000;" parent="1" vertex="1">
          <mxGeometry x="999.5" y="885" width="370" height="180" as="geometry" />
        </mxCell>
        <mxCell id="wW_qUp8k6BbSZjRIO_K6-121" value="" style="endArrow=classic;html=1;rounded=0;strokeWidth=2;exitX=1;exitY=0.5;exitDx=0;exitDy=0;" parent="1" source="wW_qUp8k6BbSZjRIO_K6-105" edge="1">
          <mxGeometry width="50" height="50" relative="1" as="geometry">
            <mxPoint x="619.5" y="954" as="sourcePoint" />
            <mxPoint x="939.5" y="945" as="targetPoint" />
          </mxGeometry>
        </mxCell>
        <mxCell id="wW_qUp8k6BbSZjRIO_K6-122" value="" style="endArrow=classic;html=1;rounded=0;exitX=0.55;exitY=0.95;exitDx=0;exitDy=0;strokeWidth=2;exitPerimeter=0;entryX=0.5;entryY=1;entryDx=0;entryDy=0;" parent="1" source="wW_qUp8k6BbSZjRIO_K6-113" target="wW_qUp8k6BbSZjRIO_K6-123" edge="1">
          <mxGeometry width="50" height="50" relative="1" as="geometry">
            <mxPoint x="259.5" y="1035" as="sourcePoint" />
            <mxPoint x="969.5" y="1135" as="targetPoint" />
            <Array as="points">
              <mxPoint x="223.5" y="1145" />
              <mxPoint x="954.5" y="1145" />
            </Array>
          </mxGeometry>
        </mxCell>
        <mxCell id="wW_qUp8k6BbSZjRIO_K6-123" value="&amp;amp;" style="ellipse;whiteSpace=wrap;html=1;aspect=fixed;strokeWidth=2;" parent="1" vertex="1">
          <mxGeometry x="939.5" y="930" width="30" height="30" as="geometry" />
        </mxCell>
        <mxCell id="wW_qUp8k6BbSZjRIO_K6-124" value="" style="endArrow=classic;html=1;rounded=0;strokeWidth=2;exitX=1;exitY=0.5;exitDx=0;exitDy=0;" parent="1" source="wW_qUp8k6BbSZjRIO_K6-123" edge="1">
          <mxGeometry width="50" height="50" relative="1" as="geometry">
            <mxPoint x="869.5" y="955" as="sourcePoint" />
            <mxPoint x="999.5" y="945" as="targetPoint" />
          </mxGeometry>
        </mxCell>
        <mxCell id="wW_qUp8k6BbSZjRIO_K6-125" value="Conv2D Residual Blocks" style="rounded=1;whiteSpace=wrap;html=1;fillColor=#e1d5e7;strokeColor=#9673a6;strokeWidth=2;" parent="1" vertex="1">
          <mxGeometry x="1039.5" y="915" width="100" height="60" as="geometry" />
        </mxCell>
        <mxCell id="wW_qUp8k6BbSZjRIO_K6-126" value="Blocks" style="rounded=1;whiteSpace=wrap;html=1;fillColor=#dae8fc;strokeColor=#6c8ebf;strokeWidth=2;" parent="1" vertex="1">
          <mxGeometry x="744.5" y="915" width="100" height="60" as="geometry" />
        </mxCell>
        <mxCell id="wW_qUp8k6BbSZjRIO_K6-127" value="" style="endArrow=classic;html=1;rounded=0;strokeWidth=2;entryX=0;entryY=0.5;entryDx=0;entryDy=0;" parent="1" target="wW_qUp8k6BbSZjRIO_K6-125" edge="1">
          <mxGeometry width="50" height="50" relative="1" as="geometry">
            <mxPoint x="999.5" y="945" as="sourcePoint" />
            <mxPoint x="1010.5" y="956" as="targetPoint" />
          </mxGeometry>
        </mxCell>
        <mxCell id="wW_qUp8k6BbSZjRIO_K6-128" value="Projection" style="rounded=1;whiteSpace=wrap;html=1;fillColor=#f8cecc;strokeColor=#b85450;strokeWidth=2;" parent="1" vertex="1">
          <mxGeometry x="1179.5" y="915" width="100" height="60" as="geometry" />
        </mxCell>
        <mxCell id="wW_qUp8k6BbSZjRIO_K6-129" value="" style="endArrow=classic;html=1;rounded=0;strokeWidth=2;exitX=1;exitY=0.5;exitDx=0;exitDy=0;" parent="1" source="wW_qUp8k6BbSZjRIO_K6-125" target="wW_qUp8k6BbSZjRIO_K6-128" edge="1">
          <mxGeometry width="50" height="50" relative="1" as="geometry">
            <mxPoint x="1006.5" y="952" as="sourcePoint" />
            <mxPoint x="1049.5" y="955" as="targetPoint" />
          </mxGeometry>
        </mxCell>
        <mxCell id="wW_qUp8k6BbSZjRIO_K6-130" value="" style="endArrow=classic;html=1;rounded=0;strokeWidth=2;exitX=1;exitY=0.5;exitDx=0;exitDy=0;" parent="1" source="wW_qUp8k6BbSZjRIO_K6-128" edge="1">
          <mxGeometry width="50" height="50" relative="1" as="geometry">
            <mxPoint x="1149.5" y="955" as="sourcePoint" />
            <mxPoint x="1369.5" y="945" as="targetPoint" />
          </mxGeometry>
        </mxCell>
        <mxCell id="wW_qUp8k6BbSZjRIO_K6-131" value="" style="endArrow=classic;html=1;rounded=0;strokeWidth=2;entryX=1.004;entryY=0.337;entryDx=0;entryDy=0;entryPerimeter=0;" parent="1" edge="1">
          <mxGeometry width="50" height="50" relative="1" as="geometry">
            <mxPoint x="1369.5" y="945" as="sourcePoint" />
            <mxPoint x="1480.5" y="945.5" as="targetPoint" />
          </mxGeometry>
        </mxCell>
        <mxCell id="wW_qUp8k6BbSZjRIO_K6-132" value="Positional Encoder" style="rounded=1;whiteSpace=wrap;html=1;fillColor=#e1d5e7;strokeColor=#9673a6;strokeWidth=2;" parent="1" vertex="1">
          <mxGeometry x="169.5" y="915" width="100" height="60" as="geometry" />
        </mxCell>
        <mxCell id="wW_qUp8k6BbSZjRIO_K6-133" value="+" style="ellipse;whiteSpace=wrap;html=1;aspect=fixed;strokeWidth=2;" parent="1" vertex="1">
          <mxGeometry x="330" y="930" width="30" height="30" as="geometry" />
        </mxCell>
        <mxCell id="wW_qUp8k6BbSZjRIO_K6-134" value="" style="endArrow=classic;html=1;rounded=0;exitX=1;exitY=0.5;exitDx=0;exitDy=0;strokeWidth=2;entryX=0;entryY=0.5;entryDx=0;entryDy=0;" parent="1" source="wW_qUp8k6BbSZjRIO_K6-133" target="wW_qUp8k6BbSZjRIO_K6-111" edge="1">
          <mxGeometry width="50" height="50" relative="1" as="geometry">
            <mxPoint x="280" y="955" as="sourcePoint" />
            <mxPoint x="340" y="955" as="targetPoint" />
          </mxGeometry>
        </mxCell>
        <mxCell id="oQb9vD2F5FtQmShGPPU0-1" value="" style="endArrow=classic;html=1;rounded=0;entryX=0.5;entryY=1;entryDx=0;entryDy=0;dashed=1;dashPattern=1 1;" edge="1" parent="1" target="wW_qUp8k6BbSZjRIO_K6-69">
          <mxGeometry width="50" height="50" relative="1" as="geometry">
            <mxPoint x="-230" y="820" as="sourcePoint" />
            <mxPoint x="35" y="250" as="targetPoint" />
          </mxGeometry>
        </mxCell>
        <mxCell id="oQb9vD2F5FtQmShGPPU0-2" value="Includes positional encoding" style="text;html=1;align=center;verticalAlign=middle;resizable=0;points=[];autosize=1;strokeColor=none;fillColor=none;" vertex="1" parent="1">
          <mxGeometry x="-310" y="820" width="170" height="30" as="geometry" />
        </mxCell>
        <mxCell id="oQb9vD2F5FtQmShGPPU0-3" value="Feature Projector" style="rounded=1;whiteSpace=wrap;html=1;fillColor=#f8cecc;strokeColor=#000000;strokeWidth=2;dashed=1;" vertex="1" parent="1">
          <mxGeometry x="10" y="915" width="100" height="60" as="geometry" />
        </mxCell>
        <mxCell id="oQb9vD2F5FtQmShGPPU0-4" value="" style="endArrow=classic;html=1;rounded=0;entryX=0;entryY=0.5;entryDx=0;entryDy=0;strokeWidth=2;exitX=1;exitY=0.5;exitDx=0;exitDy=0;" edge="1" parent="1" source="wW_qUp8k6BbSZjRIO_K6-106" target="oQb9vD2F5FtQmShGPPU0-3">
          <mxGeometry width="50" height="50" relative="1" as="geometry">
            <mxPoint x="-140.5" y="955" as="sourcePoint" />
            <mxPoint x="-100" y="955" as="targetPoint" />
          </mxGeometry>
        </mxCell>
        <mxCell id="oQb9vD2F5FtQmShGPPU0-5" value="" style="endArrow=classic;html=1;rounded=0;entryX=0;entryY=0.5;entryDx=0;entryDy=0;strokeWidth=2;exitX=1;exitY=0.5;exitDx=0;exitDy=0;" edge="1" parent="1" source="oQb9vD2F5FtQmShGPPU0-3" target="wW_qUp8k6BbSZjRIO_K6-132">
          <mxGeometry width="50" height="50" relative="1" as="geometry">
            <mxPoint y="955" as="sourcePoint" />
            <mxPoint x="20" y="955" as="targetPoint" />
          </mxGeometry>
        </mxCell>
        <mxCell id="oQb9vD2F5FtQmShGPPU0-6" value="" style="endArrow=classic;html=1;rounded=0;entryX=0.5;entryY=1;entryDx=0;entryDy=0;dashed=1;dashPattern=1 1;" edge="1" parent="1" target="oQb9vD2F5FtQmShGPPU0-3">
          <mxGeometry width="50" height="50" relative="1" as="geometry">
            <mxPoint x="-40" y="1150" as="sourcePoint" />
            <mxPoint x="29" y="1100" as="targetPoint" />
          </mxGeometry>
        </mxCell>
        <mxCell id="oQb9vD2F5FtQmShGPPU0-7" value="If patch embed dim != model embed dim" style="text;html=1;align=center;verticalAlign=middle;resizable=0;points=[];autosize=1;strokeColor=none;fillColor=none;" vertex="1" parent="1">
          <mxGeometry x="-170" y="1158" width="240" height="30" as="geometry" />
        </mxCell>
      </root>
    </mxGraphModel>
  </diagram>
</mxfile>
